<svg width="32" height="32" viewBox="0 0 32 32" fill="none" xmlns="http://www.w3.org/2000/svg">
<path d="M28.4445 1.77778C28.4445 0.795938 29.2404 0 30.2222 0C31.2041 0 32 0.795938 32 1.77778V26.1587C32 27.1406 31.2041 27.9365 30.2222 27.9365C29.2404 27.9365 28.4445 27.1406 28.4445 26.1587V1.77778Z" fill="#E9EDF7"/>
<rect x="28.4445" y="13.7143" width="3.55556" height="18.2857" rx="1.77778" fill="#4318FF"/>
<rect x="21.3334" width="3.55556" height="32" rx="1.77778" fill="#E9EDF7"/>
<rect x="21.3334" y="1.01587" width="3.55556" height="30.9841" rx="1.77778" fill="#2B3674"/>
<rect x="14.2222" width="3.55556" height="26.9206" rx="1.77778" fill="#E9EDF7"/>
<rect x="14.2222" y="7.61902" width="3.55556" height="24.381" rx="1.77778" fill="#4318FF"/>
<rect x="7.11108" width="3.55556" height="25.3968" rx="1.77778" fill="#E9EDF7"/>
<rect x="7.11108" y="20.3174" width="3.55556" height="11.6825" rx="1.77778" fill="#2B3674"/>
<rect width="3.55556" height="19.8095" rx="1.77778" fill="#E9EDF7"/>
<rect y="12.1905" width="3.55556" height="19.8095" rx="1.77778" fill="#4318FF"/>
</svg>
