<svg width="284" height="60" viewBox="0 0 284 60" fill="none" xmlns="http://www.w3.org/2000/svg">
<path d="M107.56 44L98.376 33.824V44H95.464V21.696H98.376V32.032L107.592 21.696H111.272L101.16 32.864L111.368 44H107.56ZM130.62 34.56C130.62 35.1147 130.588 35.7013 130.524 36.32H116.508C116.615 38.048 117.202 39.4027 118.268 40.384C119.356 41.344 120.668 41.824 122.204 41.824C123.463 41.824 124.508 41.536 125.34 40.96C126.194 40.3627 126.791 39.5733 127.132 38.592H130.268C129.799 40.2773 128.86 41.6533 127.452 42.72C126.044 43.7653 124.295 44.288 122.204 44.288C120.54 44.288 119.047 43.9147 117.724 43.168C116.423 42.4213 115.399 41.3653 114.652 40C113.906 38.6133 113.532 37.0133 113.532 35.2C113.532 33.3867 113.895 31.7973 114.62 30.432C115.346 29.0667 116.359 28.0213 117.66 27.296C118.983 26.5493 120.498 26.176 122.204 26.176C123.868 26.176 125.34 26.5387 126.62 27.264C127.9 27.9893 128.882 28.992 129.564 30.272C130.268 31.5307 130.62 32.96 130.62 34.56ZM127.612 33.952C127.612 32.8427 127.367 31.8933 126.876 31.104C126.386 30.2933 125.714 29.6853 124.86 29.28C124.028 28.8533 123.1 28.64 122.076 28.64C120.604 28.64 119.346 29.1093 118.3 30.048C117.276 30.9867 116.69 32.288 116.54 33.952H127.612ZM137.376 20.32V44H134.464V20.32H137.376ZM148.867 41.312L154.307 26.464H157.411L150.531 44H147.139L140.259 26.464H143.395L148.867 41.312ZM161.781 23.616C161.226 23.616 160.757 23.424 160.373 23.04C159.989 22.656 159.797 22.1867 159.797 21.632C159.797 21.0773 159.989 20.608 160.373 20.224C160.757 19.84 161.226 19.648 161.781 19.648C162.314 19.648 162.762 19.84 163.125 20.224C163.509 20.608 163.701 21.0773 163.701 21.632C163.701 22.1867 163.509 22.656 163.125 23.04C162.762 23.424 162.314 23.616 161.781 23.616ZM163.189 26.464V44H160.277V26.464H163.189ZM176.696 26.144C178.829 26.144 180.557 26.7947 181.88 28.096C183.202 29.376 183.864 31.232 183.864 33.664V44H180.984V34.08C180.984 32.3307 180.546 30.9973 179.672 30.08C178.797 29.1413 177.602 28.672 176.088 28.672C174.552 28.672 173.325 29.152 172.408 30.112C171.512 31.072 171.064 32.4693 171.064 34.304V44H168.152V26.464H171.064V28.96C171.64 28.064 172.418 27.3707 173.4 26.88C174.402 26.3893 175.501 26.144 176.696 26.144ZM199.788 32.512C200.599 32.64 201.335 32.9707 201.996 33.504C202.679 34.0373 203.212 34.6987 203.596 35.488C204.002 36.2773 204.204 37.12 204.204 38.016C204.204 39.1467 203.916 40.1707 203.34 41.088C202.764 41.984 201.922 42.6987 200.812 43.232C199.724 43.744 198.434 44 196.94 44H188.62V21.696H196.62C198.135 21.696 199.426 21.952 200.492 22.464C201.559 22.9547 202.359 23.6267 202.892 24.48C203.426 25.3333 203.692 26.2933 203.692 27.36C203.692 28.6827 203.33 29.7813 202.604 30.656C201.9 31.5093 200.962 32.128 199.788 32.512ZM191.532 31.328H196.428C197.794 31.328 198.85 31.008 199.596 30.368C200.343 29.728 200.716 28.8427 200.716 27.712C200.716 26.5813 200.343 25.696 199.596 25.056C198.85 24.416 197.772 24.096 196.364 24.096H191.532V31.328ZM196.684 41.6C198.135 41.6 199.266 41.2587 200.076 40.576C200.887 39.8933 201.292 38.944 201.292 37.728C201.292 36.4907 200.866 35.52 200.012 34.816C199.159 34.0907 198.018 33.728 196.588 33.728H191.532V41.6H196.684ZM215.893 44.288C214.251 44.288 212.757 43.9147 211.413 43.168C210.091 42.4213 209.045 41.3653 208.277 40C207.531 38.6133 207.157 37.0133 207.157 35.2C207.157 33.408 207.541 31.8293 208.309 30.464C209.099 29.0773 210.165 28.0213 211.509 27.296C212.853 26.5493 214.357 26.176 216.021 26.176C217.685 26.176 219.189 26.5493 220.533 27.296C221.877 28.0213 222.933 29.0667 223.701 30.432C224.491 31.7973 224.885 33.3867 224.885 35.2C224.885 37.0133 224.48 38.6133 223.669 40C222.88 41.3653 221.803 42.4213 220.437 43.168C219.072 43.9147 217.557 44.288 215.893 44.288ZM215.893 41.728C216.939 41.728 217.92 41.4827 218.837 40.992C219.755 40.5013 220.491 39.7653 221.045 38.784C221.621 37.8027 221.909 36.608 221.909 35.2C221.909 33.792 221.632 32.5973 221.077 31.616C220.523 30.6347 219.797 29.9093 218.901 29.44C218.005 28.9493 217.035 28.704 215.989 28.704C214.923 28.704 213.941 28.9493 213.045 29.44C212.171 29.9093 211.467 30.6347 210.933 31.616C210.4 32.5973 210.133 33.792 210.133 35.2C210.133 36.6293 210.389 37.8347 210.901 38.816C211.435 39.7973 212.139 40.5333 213.013 41.024C213.888 41.4933 214.848 41.728 215.893 41.728ZM227.626 35.168C227.626 33.376 227.989 31.808 228.714 30.464C229.439 29.0987 230.431 28.0427 231.69 27.296C232.97 26.5493 234.389 26.176 235.946 26.176C237.482 26.176 238.815 26.5067 239.946 27.168C241.077 27.8293 241.919 28.6613 242.474 29.664V26.464H245.418V44H242.474V40.736C241.898 41.76 241.034 42.6133 239.882 43.296C238.751 43.9573 237.429 44.288 235.914 44.288C234.357 44.288 232.949 43.904 231.69 43.136C230.431 42.368 229.439 41.2907 228.714 39.904C227.989 38.5173 227.626 36.9387 227.626 35.168ZM242.474 35.2C242.474 33.8773 242.207 32.7253 241.674 31.744C241.141 30.7627 240.415 30.016 239.498 29.504C238.602 28.9707 237.61 28.704 236.522 28.704C235.434 28.704 234.442 28.96 233.546 29.472C232.65 29.984 231.935 30.7307 231.402 31.712C230.869 32.6933 230.602 33.8453 230.602 35.168C230.602 36.512 230.869 37.6853 231.402 38.688C231.935 39.6693 232.65 40.4267 233.546 40.96C234.442 41.472 235.434 41.728 236.522 41.728C237.61 41.728 238.602 41.472 239.498 40.96C240.415 40.4267 241.141 39.6693 241.674 38.688C242.207 37.6853 242.474 36.5227 242.474 35.2ZM253.251 29.312C253.763 28.3093 254.488 27.5307 255.427 26.976C256.387 26.4213 257.55 26.144 258.915 26.144V29.152H258.147C254.883 29.152 253.251 30.9227 253.251 34.464V44H250.339V26.464H253.251V29.312ZM261.189 35.168C261.189 33.376 261.551 31.808 262.277 30.464C263.002 29.0987 263.994 28.0427 265.253 27.296C266.533 26.5493 267.962 26.176 269.541 26.176C270.906 26.176 272.175 26.496 273.349 27.136C274.522 27.7547 275.418 28.576 276.037 29.6V20.32H278.981V44H276.037V40.704C275.461 41.7493 274.607 42.6133 273.477 43.296C272.346 43.9573 271.023 44.288 269.509 44.288C267.951 44.288 266.533 43.904 265.253 43.136C263.994 42.368 263.002 41.2907 262.277 39.904C261.551 38.5173 261.189 36.9387 261.189 35.168ZM276.037 35.2C276.037 33.8773 275.77 32.7253 275.237 31.744C274.703 30.7627 273.978 30.016 273.061 29.504C272.165 28.9707 271.173 28.704 270.085 28.704C268.997 28.704 268.005 28.96 267.109 29.472C266.213 29.984 265.498 30.7307 264.965 31.712C264.431 32.6933 264.165 33.8453 264.165 35.168C264.165 36.512 264.431 37.6853 264.965 38.688C265.498 39.6693 266.213 40.4267 267.109 40.96C268.005 41.472 268.997 41.728 270.085 41.728C271.173 41.728 272.165 41.472 273.061 40.96C273.978 40.4267 274.703 39.6693 275.237 38.688C275.77 37.6853 276.037 36.5227 276.037 35.2Z" fill="black"/>
<path d="M62 5.5C62 3.567 63.567 2 65.5 2C67.433 2 69 3.567 69 5.5V48.2619C69 50.1949 67.433 51.7619 65.5 51.7619C63.567 51.7619 62 50.1949 62 48.2619V5.5Z" fill="#E9EDF7"/>
<rect x="62" y="26.4286" width="7" height="32.5714" rx="3.5" fill="#4318FF"/>
<rect x="48" y="2" width="7" height="57" rx="3.5" fill="#E9EDF7"/>
<rect x="48" y="3.80951" width="7" height="55.1905" rx="3.5" fill="#2B3674"/>
<rect x="34" y="2" width="7" height="47.9524" rx="3.5" fill="#E9EDF7"/>
<rect x="34" y="15.5714" width="7" height="43.4286" rx="3.5" fill="#4318FF"/>
<rect x="20" y="2" width="7" height="45.2381" rx="3.5" fill="#E9EDF7"/>
<rect x="20" y="38.1905" width="7" height="20.8095" rx="3.5" fill="#2B3674"/>
<rect x="6" y="2" width="7" height="35.2857" rx="3.5" fill="#E9EDF7"/>
<rect x="6" y="23.7143" width="7" height="35.2857" rx="3.5" fill="#4318FF"/>
</svg>
